<svg xmlns="http://www.w3.org/2000/svg" viewBox="0 0 240 57" fill="none" class="nav-logo-svg"><path d="M83.24 33.462H70.736V46.81h-6.511V14.769h20.579v5.275H70.736v8.163H83.24zm18.601 12.917q-.434-.848-.63-2.106-2.278 2.54-5.926 2.54-3.452 0-5.72-1.998-2.27-1.997-2.268-5.038 0-3.735 2.767-5.73 2.767-1.998 8.002-2.02h2.886v-1.346q0-1.627-.836-2.606-.837-.977-2.638-.977-1.585 0-2.484.76c-.6.508-.903 1.2-.903 2.085h-6.273q0-2.04 1.26-3.779 1.258-1.737 3.56-2.725t5.168-.987q4.341 0 6.893 2.183 2.55 2.182 2.55 6.133V40.95q.02 3.343.934 5.06v.367h-6.339zm-5.188-4.366q1.39 0 2.56-.62 1.173-.618 1.736-1.66v-4.038h-2.344q-4.711-.001-5.014 3.257l-.02.367q0 1.173.825 1.932.825.761 2.257.76zm25.981-.26q1.737.001 2.823-.955t1.13-2.54h5.884a8.07 8.07 0 0 1-1.301 4.374q-1.281 1.986-3.506 3.082-2.226 1.095-4.916 1.096-5.037 0-7.946-3.202t-2.907-8.848v-.412q0-5.427 2.886-8.663 2.887-3.235 7.924-3.236 4.407 0 7.068 2.508 2.657 2.51 2.704 6.676h-5.885q-.043-1.833-1.13-2.98-1.087-1.146-2.865-1.145-2.194 0-3.31 1.598-1.119 1.599-1.119 5.186v.654q0 3.63 1.106 5.217 1.107 1.588 3.365 1.588zm21.727-24.64v5.776h4.017v4.601h-4.017v11.724q0 1.302.5 1.868.5.564 1.911.564 1.042 0 1.844-.151v4.754a13 13 0 0 1-3.8.564q-6.6-.001-6.731-6.665V27.493h-3.429v-4.601h3.429v-5.776h6.274zm6.684 17.304q-.001-3.497 1.347-6.231 1.345-2.736 3.876-4.233 2.528-1.498 5.871-1.498 4.755.001 7.76 2.908 3.007 2.91 3.355 7.903l.043 1.606q0 5.407-3.017 8.673-3.016 3.268-8.096 3.268-5.079 0-8.11-3.257-3.028-3.255-3.029-8.859v-.283zm6.276.444q.001 3.35 1.259 5.12 1.258 1.774 3.604 1.773c1.564 0 2.707-.585 3.561-1.752q1.282-1.749 1.281-5.598 0-3.282-1.281-5.088-1.282-1.806-3.603-1.805c-1.548 0-2.72.598-3.562 1.794q-1.258 1.794-1.259 5.557m33.841-6.092a17 17 0 0 0-2.257-.174q-3.56 0-4.667 2.41V46.81h-6.273V22.889h5.927l.174 2.799q1.89-3.235 5.231-3.236 1.044 0 1.953.283zm14.628 18.043q-5.167 0-8.411-3.17-3.246-3.172-3.246-8.446v-.608q0-3.54 1.368-6.33c.913-1.86 2.204-3.29 3.876-4.299q2.507-1.508 5.72-1.508 4.818 0 7.589 3.04 2.767 3.04 2.767 8.618v2.561h-14.957q.306 2.303 1.834 3.69 1.53 1.39 3.876 1.39 3.625 0 5.665-2.627l3.082 3.453q-1.412 1.996-3.821 3.114-2.41 1.119-5.339 1.119zm-.717-19.3q-1.865 0-3.029 1.265-1.162 1.265-1.487 3.62h8.726v-.503q-.043-2.091-1.13-3.238-1.087-1.145-3.082-1.146zm13.762 6.946q0-5.492 2.463-8.75 2.464-3.256 6.742-3.257 3.43.001 5.664 2.561V13.03h6.295v33.346h-5.665l-.304-2.498q-2.345 2.93-6.035 2.932-4.147 0-6.655-3.268t-2.508-9.086zm6.273.468q0 3.305 1.151 5.067 1.15 1.762 3.344 1.762 2.91.002 4.104-2.458v-9.284q-1.172-2.458-4.059-2.458-4.537 0-4.537 7.371zM13.131 30.731q.048.232.053.474c.024 1.424-1.196 2.66-2.646 2.68-1.402.019-2.627-1.193-2.638-2.614q0-.115.008-.23a2.647 2.647 0 0 1 5.223-.31m13.619.485c0-.72.286-1.363.751-1.831a2.648 2.648 0 0 1 4.352 2.783c-.385.977-1.36 1.702-2.468 1.717-1.44.019-2.64-1.198-2.635-2.67m10.87-14.758c.282.418.446.92.452 1.463v.114c-.061 1.392-1.225 2.537-2.628 2.548-1.428.013-2.664-1.228-2.659-2.667.008-1.434 1.194-2.604 2.64-2.606.895 0 1.686.434 2.165 1.1.01.016.024.032.034.048z" fill="currentColor"/><path d="M23.995.99 0 14.993v28.011L23.995 57.01 47.99 43.005V14.994zm12.407 21.394c-2.032.457-4.049-.471-4.977-2.297a5 5 0 0 1-.27-.648c-.072-.21-.334-.339-.484-.394a1 1 0 0 0-.104-.035s-10.488-.016-10.601 0v11.316h4.027c.172 0 .33-.026.473-.066.336-.095.57-.272.611-.389q.047-.136.1-.267c1.073-2.64 3.996-3.71 6.504-2.291 1.683.95 2.585 3.014 2.152 4.924-.426 1.889-2.056 3.302-3.945 3.514a4.52 4.52 0 0 1-4.803-3.099l-.01-.029c-.037-.124-.395-.431-1.082-.431h-4.027v12.073H17.98V32.192h-1.995s-.19.032-.436.13c-.262.105-.585.29-.8.597q-.074.108-.129.236c-.86 2.08-3.26 3.096-5.398 2.442-2.143-.656-3.526-2.783-3.22-4.958a4.554 4.554 0 0 1 4.514-3.937c1.895 0 3.53 1.082 4.22 2.825q.054.135.098.27c.08.241.429.379.723.45.232.058.428.077.428.077h1.995V16.999h12.586s.048-.008.114-.037a.84.84 0 0 0 .471-.526q.099-.293.233-.566a4.53 4.53 0 0 1 4.686-2.45c2.14.312 3.826 2.148 3.91 4.26.09 2.259-1.397 4.212-3.58 4.704" fill="currentColor"/></svg>